<svg width="64" height="24" viewBox="0 0 64 24" fill="none" xmlns="http://www.w3.org/2000/svg">
<path d="M0.480875 23V0.567999H16.0329V3.832H3.77688V9.816H13.9209V13.08H3.77688V23H0.480875ZM24.8566 16.376H28.5046V16.6C28.5686 17.976 29.7206 19.16 31.0006 19.544C31.3206 19.64 31.5446 19.704 31.7686 19.736C31.9926 19.736 32.2486 19.768 32.6006 19.8C32.6646 19.8 32.7606 19.8 32.8246 19.8C35.2246 19.8 36.9206 19 36.9206 16.408C36.9206 14.008 35.5446 13.304 33.2406 13.304C32.2806 13.272 31.2886 13.304 30.2966 13.304H30.0726V10.264H30.2966C31.2566 10.264 32.2486 10.296 33.2086 10.296C35.6406 10.296 36.8886 9.08 36.8886 6.68C36.8886 4.504 34.7126 3.864 32.7606 3.864C31.1606 3.864 29.5286 4.312 28.7926 5.752C28.6326 6.104 28.5046 6.616 28.5046 6.968V7.192H24.8566V6.968C24.8886 6.2 25.1766 5.208 25.4966 4.536C26.8406 1.592 29.7206 0.567999 32.7286 0.567999C36.5366 0.567999 40.4086 2.104 40.4086 6.68C40.4086 9.24 38.9046 11.064 36.2486 11.32V12.152C39.0006 12.216 40.3766 13.944 40.3766 16.6C40.3766 21.272 36.7286 23 32.7286 23C29.7206 23 26.7446 22.04 25.4326 19.032C25.1126 18.36 24.8566 17.368 24.8566 16.6V16.376ZM42.7941 23.064V19.672H46.7941V23.064H42.7941ZM48.2004 16.376H51.6244V16.6C51.6244 16.952 51.7204 17.432 51.8484 17.752C52.4884 19.32 53.9604 19.928 55.6244 19.928C58.3444 19.928 60.0084 18.328 60.0084 15.576C60.0084 13.08 58.7284 11.64 56.2004 11.64C54.4724 11.64 52.2964 12.408 51.5924 14.104L51.5604 14.232H48.2004V0.567999L62.8884 0.599998L62.8564 4.088L51.5924 4.056L51.5604 7.384C51.5604 8.088 51.5924 8.472 51.5284 9.176C51.4964 9.624 51.4324 9.88 51.3684 10.328L51.0484 12.312H51.8484C52.8084 9.624 54.3444 8.44 57.0964 8.44C61.8004 8.44 63.4964 11.544 63.4964 15.8V15.896C63.4964 16.824 63.3044 17.784 62.9524 18.616C61.7364 21.688 59.0484 23 55.9124 23C53.0964 23 50.0564 22.2 48.7444 19.32C48.3924 18.52 48.2004 17.656 48.2004 16.792V16.376Z" fill="white"/>
</svg>
