<svg width="94" height="24" viewBox="0 0 94 24" fill="none" xmlns="http://www.w3.org/2000/svg">
<path d="M0.184 23V0.567999H3.48V23H0.184ZM5.7435 16.504L5.7115 16.248H9.3275L9.3595 16.44C9.7115 18.776 11.3115 20.024 13.6155 20.024C15.3755 20.024 17.1995 19.544 17.1995 17.656V17.4C17.1995 16.472 16.5275 15.704 15.5995 15C15.1515 14.68 14.6395 14.36 14.1595 14.104C13.6795 13.816 13.1995 13.56 12.8155 13.336C12.0795 12.92 11.2795 12.504 10.4795 12.056C9.6795 11.608 8.9115 11.128 8.2075 10.584C6.7675 9.464 5.7115 8.024 5.7115 5.88C5.7115 1.528 9.6475 0.0879993 13.1995 0.0879993C17.2955 0.0879993 20.6235 2.904 20.7515 7.16L20.7835 7.416H17.4235V7.192C17.2635 5.4 16.3675 4.184 14.6395 3.704C14.2875 3.608 13.6155 3.48 13.2635 3.48C11.5035 3.48 9.3915 3.96 9.3915 5.912C9.3915 6.712 9.7435 7.288 10.2235 7.768C10.4795 8.024 10.7995 8.216 11.1195 8.44C11.4395 8.632 11.7915 8.824 12.1115 9.016C12.7835 9.368 13.4235 9.72 14.0955 10.136C14.7355 10.52 15.4395 10.936 16.1755 11.384C16.9115 11.864 17.6475 12.376 18.3195 12.984C19.6635 14.136 20.7195 15.576 20.7195 17.4C20.7195 21.464 17.4875 23.384 13.9035 23.384C9.6795 23.384 6.1275 21.016 5.7435 16.504ZM23.5405 18.008C23.2525 17.272 23.0285 16.216 23.0285 15.384V8.376C23.0285 7.384 23.2845 6.2 23.6365 5.272C25.1085 1.56 28.3725 0.119999 32.1165 0.119999C35.8925 0.119999 39.0605 1.592 40.5645 5.272C40.9165 6.168 41.2365 7.384 41.2365 8.376V15.384C41.2365 16.184 40.9485 17.304 40.6925 18.04C39.2525 21.912 36.1165 23.64 32.1165 23.64C28.1485 23.64 24.9165 21.944 23.5405 18.008ZM26.8365 16.664C27.7005 19.096 29.5245 20.536 32.1165 20.536C34.6445 20.536 36.4365 19.384 37.3645 17.016C37.4925 16.6 37.7485 15.768 37.7485 15.384V8.376C37.7485 7.864 37.5565 7.128 37.3645 6.648C36.5005 4.376 34.5165 3.352 32.1165 3.352C29.7165 3.352 27.7645 4.344 26.9005 6.616C26.7085 7.096 26.4845 7.896 26.4845 8.376V15.384C26.4845 15.608 26.7405 16.408 26.8365 16.664ZM54.5085 23V22.776C54.4765 18.488 54.4765 14.232 54.4765 9.944C54.4765 9.624 54.5085 9.368 54.5405 9.112L55.9485 5.4H55.0845C54.5725 6.648 53.9965 7.288 53.2285 7.64C52.8125 7.8 52.3645 7.896 51.8845 7.928C51.4045 7.96 50.8605 7.96 50.2205 7.96H49.9965V4.984H50.2205C52.1085 4.984 53.5485 4.152 54.1885 2.328C54.3485 1.88 54.5085 1.272 54.5085 0.792V0.567999H58.0605V23H54.5085ZM68.4265 23C63.3065 23 60.7465 19.736 60.7465 14.904V8.664C60.7465 3.832 63.3065 0.567999 68.4265 0.567999C73.4505 0.567999 76.0745 3.512 76.0745 8.408V14.904C76.0745 19.736 73.5145 23 68.4265 23ZM68.4265 19.928C71.3705 19.928 72.6505 17.656 72.6505 14.904V8.44C72.6505 5.72 71.2425 3.736 68.4265 3.736C65.6425 3.736 64.1705 5.976 64.1705 8.664V15C64.1705 17.688 65.6105 19.928 68.4265 19.928ZM86.1453 23C81.0253 23 78.4653 19.736 78.4653 14.904V8.664C78.4653 3.832 81.0253 0.567999 86.1453 0.567999C91.1693 0.567999 93.7933 3.512 93.7933 8.408V14.904C93.7933 19.736 91.2333 23 86.1453 23ZM86.1453 19.928C89.0893 19.928 90.3693 17.656 90.3693 14.904V8.44C90.3693 5.72 88.9613 3.736 86.1453 3.736C83.3613 3.736 81.8893 5.976 81.8893 8.664V15C81.8893 17.688 83.3293 19.928 86.1453 19.928Z" fill="white"/>
</svg>
