<svg width="134" height="32" viewBox="0 0 134 32" fill="none" xmlns="http://www.w3.org/2000/svg">
<g clip-path="url(#clip0_51_141)">
<path d="M20 21.1162C20.3852 21.1164 20.7556 21.2648 21.0344 21.5306C21.3132 21.7965 21.479 22.1594 21.4975 22.5441C21.516 22.9289 21.3858 23.306 21.1338 23.5974C20.8818 23.8888 20.5274 24.072 20.144 24.1092L20 24.1162H4C3.61478 24.116 3.24441 23.9676 2.96561 23.7018C2.68682 23.436 2.52099 23.0731 2.50248 22.6883C2.48396 22.3035 2.61419 21.9264 2.86618 21.635C3.11816 21.3436 3.47258 21.1604 3.856 21.1232L4 21.1162H20ZM20 14.1162C20.3978 14.1162 20.7794 14.2742 21.0607 14.5556C21.342 14.8369 21.5 15.2184 21.5 15.6162C21.5 16.014 21.342 16.3956 21.0607 16.6769C20.7794 16.9582 20.3978 17.1162 20 17.1162H4C3.60218 17.1162 3.22064 16.9582 2.93934 16.6769C2.65804 16.3956 2.5 16.014 2.5 15.6162C2.5 15.2184 2.65804 14.8369 2.93934 14.5556C3.22064 14.2742 3.60218 14.1162 4 14.1162H20ZM20 7.11621C20.3978 7.11621 20.7794 7.27425 21.0607 7.55555C21.342 7.83686 21.5 8.21839 21.5 8.61621C21.5 9.01404 21.342 9.39557 21.0607 9.67687C20.7794 9.95818 20.3978 10.1162 20 10.1162H4C3.60218 10.1162 3.22064 9.95818 2.93934 9.67687C2.65804 9.39557 2.5 9.01404 2.5 8.61621C2.5 8.21839 2.65804 7.83686 2.93934 7.55555C3.22064 7.27425 3.60218 7.11621 4 7.11621H20Z" fill="white"/>
</g>
<path d="M38.184 28V5.568H41.864L48.168 17.312H48.264L54.472 5.568H58.152V28H54.856V11.552H54.728L48.744 23.04H47.72L41.608 11.552H41.48V28H38.184ZM60.9653 28V5.568H76.5173V8.832H64.2613V14.816H74.4053V18.08H64.2613V24.736H76.5173V28H60.9653ZM79.309 28V5.568H83.021L91.341 22.016H91.437V5.568H94.733V28H91.021L82.637 11.552H82.605V28H79.309ZM105.122 28H104.834C100.13 27.84 97.0903 24.704 97.0903 19.904V5.568H100.514V19.904C100.514 22.784 102.114 24.704 105.09 24.704C108.066 24.704 109.666 22.784 109.666 19.904V5.568H113.09V19.904C113.09 24.832 109.922 27.936 105.122 28Z" fill="white"/>
<defs>
<clipPath id="clip0_51_141">
<rect width="24" height="24" fill="white" transform="translate(0 3.61621)"/>
</clipPath>
</defs>
</svg>
