<svg width="58" height="29" viewBox="0 0 58 29" fill="none" xmlns="http://www.w3.org/2000/svg">
<path fill-rule="evenodd" clip-rule="evenodd" d="M49.535 0.72168C51.4 0.72168 52.91 2.2317 52.91 4.09666V24.8019C52.91 26.667 51.3999 28.1769 49.535 28.1769H3.37498C1.51245 28.1769 0 26.6669 0 24.8019V4.09666C0 2.23163 1.51002 0.72168 3.37498 0.72168H49.535ZM49.535 2.72168H3.37498C2.61498 2.72168 2 3.33668 2 4.09666V24.8019C2 25.5619 2.615 26.1769 3.37498 26.1769H49.535C50.295 26.1769 50.91 25.5619 50.91 24.8019V4.09666C50.91 3.33666 50.2949 2.72168 49.535 2.72168Z" fill="white"/>
<path fill-rule="evenodd" clip-rule="evenodd" d="M52.5096 7.44896C52.1771 7.44896 51.9071 7.71897 51.9071 8.05147V20.8463C51.9071 21.1788 52.1771 21.4488 52.5096 21.4488H56.9596C57.5346 21.4488 57.9996 20.9839 57.9996 20.4088V8.48629C57.9996 7.91129 57.5346 7.44629 56.9596 7.44629H52.5096V7.44896Z" fill="white"/>
<path fill-rule="evenodd" clip-rule="evenodd" d="M12.6853 4.9043C13.2603 4.9043 13.7278 5.3718 13.7278 5.94679V22.9516C13.7278 23.5266 13.2603 23.9941 12.6853 23.9941H5.86293C5.28793 23.9941 4.82043 23.5266 4.82043 22.9516V5.94679C4.82043 5.37179 5.28794 4.9043 5.86293 4.9043H12.6853Z" fill="white"/>
<path fill-rule="evenodd" clip-rule="evenodd" d="M24.14 4.9043C24.715 4.9043 25.1825 5.3718 25.1825 5.94679V22.9516C25.1825 23.5266 24.715 23.9941 24.14 23.9941H17.3176C16.7426 23.9941 16.2751 23.5266 16.2751 22.9516V5.94679C16.2751 5.37179 16.7426 4.9043 17.3176 4.9043H24.14Z" fill="white"/>
</svg>
