<svg width="106" height="105" viewBox="0 0 106 105" fill="none" xmlns="http://www.w3.org/2000/svg">
<circle cx="53" cy="52.4658" r="42" fill="white" fill-opacity="0.2"/>
<circle cx="52.9999" cy="52.4662" r="51.6342" stroke="white"/>
<path d="M29.8492 57.0069L29.8252 56.8149H32.5372L32.5612 56.9589C32.8252 58.7109 34.0252 59.6469 35.7532 59.6469C37.0732 59.6469 38.4412 59.2869 38.4412 57.8709V57.6789C38.4412 56.9829 37.9372 56.4069 37.2412 55.8789C36.9052 55.6389 36.5212 55.3989 36.1612 55.2069C35.8012 54.9909 35.4412 54.7989 35.1532 54.6309C34.6012 54.3189 34.0012 54.0069 33.4012 53.6709C32.8012 53.3349 32.2252 52.9749 31.6972 52.5669C30.6172 51.7269 29.8252 50.6469 29.8252 49.0389C29.8252 45.7749 32.7772 44.6949 35.4412 44.6949C38.5132 44.6949 41.0092 46.8069 41.1052 49.9989L41.1292 50.1909H38.6092V50.0229C38.4892 48.6789 37.8172 47.7669 36.5212 47.4069C36.2572 47.3349 35.7532 47.2389 35.4892 47.2389C34.1692 47.2389 32.5852 47.5989 32.5852 49.0629C32.5852 49.6629 32.8492 50.0949 33.2092 50.4549C33.4012 50.6469 33.6412 50.7909 33.8812 50.9589C34.1212 51.1029 34.3852 51.2469 34.6252 51.3909C35.1292 51.6549 35.6092 51.9189 36.1132 52.2309C36.5932 52.5189 37.1212 52.8309 37.6732 53.1669C38.2252 53.5269 38.7772 53.9109 39.2812 54.3669C40.2892 55.2309 41.0812 56.3109 41.0812 57.6789C41.0812 60.7269 38.6572 62.1669 35.9692 62.1669C32.8012 62.1669 30.1372 60.3909 29.8492 57.0069ZM48.6506 59.5749V61.8789H48.4826C47.8826 61.8789 47.2586 61.9269 46.6586 61.9269C45.2426 61.9269 43.3466 61.7589 43.3466 59.7189L43.3226 51.1509H41.8346V48.8949H43.3226V45.9909H45.8426V48.8949H48.6266V51.1509H45.8426V59.2149C45.8426 59.4309 45.9386 59.5269 46.1066 59.5509C46.2026 59.5749 46.3226 59.5989 46.4426 59.5989C46.5626 59.5989 46.6826 59.5989 46.8026 59.5989C47.3546 59.5989 47.9306 59.5749 48.4826 59.5749H48.6506ZM57.7183 59.2149H57.1183C56.6143 60.8949 55.1263 61.8789 53.3983 61.8789C50.9503 61.8789 49.2943 60.7749 49.2943 58.1829C49.2943 54.9189 51.4543 54.1749 54.1663 54.1749C55.0543 54.1749 55.9423 54.2709 56.8303 54.2709C56.8543 53.6229 56.8543 52.9989 56.8543 52.3509C56.8543 51.2469 55.6303 50.8869 54.5742 50.8869H54.4783C53.5423 50.8869 52.6543 51.1749 52.3183 52.0629C52.2463 52.2549 52.1743 52.4949 52.1743 52.6869V52.8549H49.4143V52.6869C49.4623 52.2309 49.6543 51.6789 49.8463 51.2949C50.7583 49.4469 52.5823 48.7749 54.5023 48.7749C57.4303 48.7749 59.5423 50.0709 59.5423 53.1909V59.1429C59.5663 59.1429 59.5903 59.1669 59.6383 59.1669C59.7583 59.2149 59.9263 59.2389 60.0943 59.2389C60.4543 59.2629 60.8383 59.2629 60.9103 59.2629H61.0782V61.8789H60.9103C59.6623 61.8789 58.5343 61.3269 57.9823 60.1509C57.8383 59.8629 57.7423 59.5509 57.7183 59.2149ZM56.9503 56.1429H54.9103C53.1343 56.1429 51.8623 56.2149 51.8623 58.1829C51.8623 59.2389 52.7743 59.6709 53.8063 59.6709C55.6543 59.6709 56.9023 58.7829 56.9503 56.9109V56.1429ZM64.4073 61.8789H61.8633V48.8469H64.4553L64.1433 50.8869H64.7913C65.3193 48.9429 66.3273 48.8469 67.9593 48.8469H68.1273L68.0793 51.7509H67.6473C67.3593 51.7509 66.5193 51.7509 65.7513 51.8709C65.3673 51.9189 65.0073 52.0149 64.7673 52.1349C64.5033 52.2549 64.4073 52.3749 64.4073 52.4949V61.8789ZM76.0218 59.5749V61.8789H75.8538C75.2538 61.8789 74.6298 61.9269 74.0298 61.9269C72.6138 61.9269 70.7178 61.7589 70.7178 59.7189L70.6938 51.1509H69.2058V48.8949H70.6938V45.9909H73.2138V48.8949H75.9978V51.1509H73.2138V59.2149C73.2138 59.4309 73.3098 59.5269 73.4778 59.5509C73.5738 59.5749 73.6938 59.5989 73.8138 59.5989C73.9338 59.5989 74.0538 59.5989 74.1738 59.5989C74.7258 59.5989 75.3018 59.5749 75.8538 59.5749H76.0218Z" fill="white"/>
</svg>
