<svg width="105" height="105" viewBox="0 0 105 105" fill="none" xmlns="http://www.w3.org/2000/svg">
<circle cx="52.1342" cy="52.1342" r="51.6342" fill="url(#paint0_linear_541_8051)" fill-opacity="0.6" stroke="url(#paint1_linear_541_8051)"/>
<path d="M28.9835 56.6749L28.9595 56.4829H31.6715L31.6955 56.6269C31.9595 58.3789 33.1595 59.3149 34.8875 59.3149C36.2075 59.3149 37.5755 58.9549 37.5755 57.5389V57.3469C37.5755 56.6509 37.0715 56.0749 36.3755 55.5469C36.0395 55.3069 35.6555 55.0669 35.2955 54.8749C34.9355 54.6589 34.5755 54.4669 34.2875 54.2989C33.7355 53.9869 33.1355 53.6749 32.5355 53.3389C31.9355 53.0029 31.3595 52.6429 30.8315 52.2349C29.7515 51.3949 28.9595 50.3149 28.9595 48.7069C28.9595 45.4429 31.9115 44.3629 34.5755 44.3629C37.6475 44.3629 40.1435 46.4749 40.2395 49.6669L40.2635 49.8589H37.7435V49.6909C37.6235 48.3469 36.9515 47.4349 35.6555 47.0749C35.3915 47.0029 34.8875 46.9069 34.6235 46.9069C33.3035 46.9069 31.7195 47.2669 31.7195 48.7309C31.7195 49.3309 31.9835 49.7629 32.3435 50.1229C32.5355 50.3149 32.7755 50.4589 33.0155 50.6269C33.2555 50.7709 33.5195 50.9149 33.7595 51.0589C34.2635 51.3229 34.7435 51.5869 35.2475 51.8989C35.7275 52.1869 36.2555 52.4989 36.8075 52.8349C37.3595 53.1949 37.9115 53.5789 38.4155 54.0349C39.4235 54.8989 40.2155 55.9789 40.2155 57.3469C40.2155 60.3949 37.7915 61.8349 35.1035 61.8349C31.9355 61.8349 29.2715 60.0589 28.9835 56.6749ZM47.7848 59.2429V61.5469H47.6168C47.0168 61.5469 46.3928 61.5949 45.7928 61.5949C44.3768 61.5949 42.4808 61.4269 42.4808 59.3869L42.4568 50.8189H40.9688V48.5629H42.4568V45.6589H44.9768V48.5629H47.7608V50.8189H44.9768V58.8829C44.9768 59.0989 45.0728 59.1949 45.2408 59.2189C45.3368 59.2429 45.4568 59.2669 45.5768 59.2669C45.6968 59.2669 45.8168 59.2669 45.9368 59.2669C46.4888 59.2669 47.0648 59.2429 47.6168 59.2429H47.7848ZM56.8525 58.8829H56.2525C55.7485 60.5629 54.2605 61.5469 52.5325 61.5469C50.0845 61.5469 48.4285 60.4429 48.4285 57.8509C48.4285 54.5869 50.5885 53.8429 53.3005 53.8429C54.1885 53.8429 55.0765 53.9389 55.9645 53.9389C55.9885 53.2909 55.9885 52.6669 55.9885 52.0189C55.9885 50.9149 54.7645 50.5549 53.7085 50.5549H53.6125C52.6765 50.5549 51.7885 50.8429 51.4525 51.7309C51.3805 51.9229 51.3085 52.1629 51.3085 52.3549V52.5229H48.5485V52.3549C48.5965 51.8989 48.7885 51.3469 48.9805 50.9629C49.8925 49.1149 51.7165 48.4429 53.6365 48.4429C56.5645 48.4429 58.6765 49.7389 58.6765 52.8589V58.8109C58.7005 58.8109 58.7245 58.8349 58.7725 58.8349C58.8925 58.8829 59.0605 58.9069 59.2285 58.9069C59.5885 58.9309 59.9725 58.9309 60.0445 58.9309H60.2125V61.5469H60.0445C58.7965 61.5469 57.6685 60.9949 57.1165 59.8189C56.9725 59.5309 56.8765 59.2189 56.8525 58.8829ZM56.0845 55.8109H54.0445C52.2685 55.8109 50.9965 55.8829 50.9965 57.8509C50.9965 58.9069 51.9085 59.3389 52.9405 59.3389C54.7885 59.3389 56.0365 58.4509 56.0845 56.5789V55.8109ZM63.5416 61.5469H60.9976V48.5149H63.5896L63.2776 50.5549H63.9256C64.4536 48.6109 65.4616 48.5149 67.0936 48.5149H67.2616L67.2136 51.4189H66.7816C66.4936 51.4189 65.6536 51.4189 64.8856 51.5389C64.5016 51.5869 64.1416 51.6829 63.9016 51.8029C63.6376 51.9229 63.5416 52.0429 63.5416 52.1629V61.5469ZM75.1561 59.2429V61.5469H74.9881C74.3881 61.5469 73.7641 61.5949 73.1641 61.5949C71.7481 61.5949 69.8521 61.4269 69.8521 59.3869L69.8281 50.8189H68.3401V48.5629H69.8281V45.6589H72.3481V48.5629H75.1321V50.8189H72.3481V58.8829C72.3481 59.0989 72.4441 59.1949 72.6121 59.2189C72.7081 59.2429 72.8281 59.2669 72.9481 59.2669C73.0681 59.2669 73.1881 59.2669 73.3081 59.2669C73.8601 59.2669 74.4361 59.2429 74.9881 59.2429H75.1561Z" fill="white"/>
<defs>
<linearGradient id="paint0_linear_541_8051" x1="52.1342" y1="0" x2="52.1342" y2="104.268" gradientUnits="userSpaceOnUse">
<stop stop-color="white"/>
<stop offset="1" stop-color="white" stop-opacity="0.36"/>
</linearGradient>
<linearGradient id="paint1_linear_541_8051" x1="46.5" y1="132" x2="98" y2="18.5" gradientUnits="userSpaceOnUse">
<stop stop-color="white"/>
<stop offset="1" stop-color="white" stop-opacity="0.13"/>
</linearGradient>
</defs>
</svg>
